<svg width="142" height="20" viewBox="0 0 142 20" fill="none" xmlns="http://www.w3.org/2000/svg">
<g id="Vector">
<path d="M0 19.6406V0.0537109H8.89048C11.0946 0.0537109 12.7986 0.581583 14.0025 1.63733C15.2064 2.67455 15.8084 4.12851 15.8084 5.99922C15.8084 7.22166 15.5306 8.2774 14.9749 9.16645C14.4378 10.037 13.6598 10.713 12.6411 11.1946C11.641 11.6576 10.4371 11.8892 9.02939 11.8892L9.36279 11.2779H10.5019C11.2983 11.2779 12.0021 11.4909 12.6134 11.9169C13.2431 12.3429 13.7617 12.9634 14.1692 13.7784L17.0864 19.6406H12.3078L9.27944 13.3339C9.05718 12.7967 8.70526 12.4448 8.22369 12.2781C7.76065 12.0929 7.22351 12.0003 6.61229 12.0003H4.33411V19.6406H0ZM4.33411 8.88863H8.14034C9.27018 8.88863 10.1314 8.6571 10.7241 8.19406C11.3168 7.73101 11.6132 7.0457 11.6132 6.13813C11.6132 5.23056 11.3168 4.55452 10.7241 4.10999C10.1314 3.64695 9.27018 3.41542 8.14034 3.41542H4.33411V8.88863Z" fill="#35424A"/>
<path d="M28.0886 19.9462C25.2177 19.9462 23.0784 19.2331 21.6708 17.8069C20.2631 16.3807 19.5593 14.26 19.5593 11.4446V0.0537109H23.8934V11.4724C23.8934 13.0468 24.2268 14.2414 24.8936 15.0564C25.5789 15.8714 26.6439 16.2788 28.0886 16.2788C29.4962 16.2788 30.5427 15.8714 31.228 15.0564C31.9319 14.2414 32.2838 13.0468 32.2838 11.4724V0.0537109H36.5623V11.4446C36.5623 14.26 35.8492 16.3807 34.423 17.8069C33.0154 19.2331 30.9039 19.9462 28.0886 19.9462Z" fill="#35424A"/>
<path d="M40.3989 19.6406V0.0537109H44.733V7.91623H53.7069V0.0537109H58.0688V19.6406H53.7069V11.5002H44.733V19.6406H40.3989Z" fill="#35424A"/>
<path d="M59.744 19.6406L68.7456 0.0537109H72.3296L81.4423 19.6406H77.0526L74.6911 14.1951L76.3858 15.3898H64.7449L66.4674 14.1951L64.1059 19.6406H59.744ZM70.5237 4.61008L66.9397 13.1116L66.1896 12.0559H74.9411L74.3021 13.1116L70.6348 4.61008H70.5237Z" fill="#35424A"/>
<path d="M83.1312 19.6406V0.0537109H86.354L96.9948 13.5839H96.2446V0.0537109H100.273V19.6406H97.0503L86.4373 6.11035H87.1597V19.6406H83.1312Z" fill="#35424A"/>
<path d="M104.24 19.6406V0.0537109H108.574V8.58301H108.629L116.658 0.0537109H121.798L111.935 10.3055L111.963 8.52745L122.409 19.6406H117.103L108.629 10.6945H108.574V19.6406H104.24Z" fill="#35424A"/>
<path d="M120.302 19.6406L129.303 0.0537109H132.887L142 19.6406H137.61L135.249 14.1951L136.944 15.3898H125.303L127.025 14.1951L124.664 19.6406H120.302ZM131.081 4.61008L127.497 13.1116L126.747 12.0559H135.499L134.86 13.1116L131.193 4.61008H131.081Z" fill="#35424A"/>
<path d="M0 19.6406V0.0537109H8.89048C11.0946 0.0537109 12.7986 0.581583 14.0025 1.63733C15.2064 2.67455 15.8084 4.12851 15.8084 5.99922C15.8084 7.22166 15.5306 8.2774 14.9749 9.16645C14.4378 10.037 13.6598 10.713 12.6411 11.1946C11.641 11.6576 10.4371 11.8892 9.02939 11.8892L9.36279 11.2779H10.5019C11.2983 11.2779 12.0021 11.4909 12.6134 11.9169C13.2431 12.3429 13.7617 12.9634 14.1692 13.7784L17.0864 19.6406H12.3078L9.27944 13.3339C9.05718 12.7967 8.70526 12.4448 8.22369 12.2781C7.76065 12.0929 7.22351 12.0003 6.61229 12.0003H4.33411V19.6406H0ZM4.33411 8.88863H8.14034C9.27018 8.88863 10.1314 8.6571 10.7241 8.19406C11.3168 7.73101 11.6132 7.0457 11.6132 6.13813C11.6132 5.23056 11.3168 4.55452 10.7241 4.10999C10.1314 3.64695 9.27018 3.41542 8.14034 3.41542H4.33411V8.88863Z" fill="#35424A"/>
<path d="M28.0886 19.9462C25.2177 19.9462 23.0784 19.2331 21.6708 17.8069C20.2631 16.3807 19.5593 14.26 19.5593 11.4446V0.0537109H23.8934V11.4724C23.8934 13.0468 24.2268 14.2414 24.8936 15.0564C25.5789 15.8714 26.6439 16.2788 28.0886 16.2788C29.4962 16.2788 30.5427 15.8714 31.228 15.0564C31.9319 14.2414 32.2838 13.0468 32.2838 11.4724V0.0537109H36.5623V11.4446C36.5623 14.26 35.8492 16.3807 34.423 17.8069C33.0154 19.2331 30.9039 19.9462 28.0886 19.9462Z" fill="#35424A"/>
<path d="M40.3989 19.6406V0.0537109H44.733V7.91623H53.7069V0.0537109H58.0688V19.6406H53.7069V11.5002H44.733V19.6406H40.3989Z" fill="#35424A"/>
<path d="M59.744 19.6406L68.7456 0.0537109H72.3296L81.4423 19.6406H77.0526L74.6911 14.1951L76.3858 15.3898H64.7449L66.4674 14.1951L64.1059 19.6406H59.744ZM70.5237 4.61008L66.9397 13.1116L66.1896 12.0559H74.9411L74.3021 13.1116L70.6348 4.61008H70.5237Z" fill="#35424A"/>
<path d="M83.1312 19.6406V0.0537109H86.354L96.9948 13.5839H96.2446V0.0537109H100.273V19.6406H97.0503L86.4373 6.11035H87.1597V19.6406H83.1312Z" fill="#35424A"/>
<path d="M104.24 19.6406V0.0537109H108.574V8.58301H108.629L116.658 0.0537109H121.798L111.935 10.3055L111.963 8.52745L122.409 19.6406H117.103L108.629 10.6945H108.574V19.6406H104.24Z" fill="#35424A"/>
<path d="M120.302 19.6406L129.303 0.0537109H132.887L142 19.6406H137.61L135.249 14.1951L136.944 15.3898H125.303L127.025 14.1951L124.664 19.6406H120.302ZM131.081 4.61008L127.497 13.1116L126.747 12.0559H135.499L134.86 13.1116L131.193 4.61008H131.081Z" fill="#35424A"/>
</g>
</svg>
